<mxfile host="65bd71144e">
    <diagram id="IkX3gGliq9fCBCHWH_ia" name="Page-1">
        <mxGraphModel dx="1238" dy="1575" grid="1" gridSize="10" guides="1" tooltips="1" connect="1" arrows="1" fold="1" page="1" pageScale="1" pageWidth="1100" pageHeight="850" math="0" shadow="0">
            <root>
                <mxCell id="0"/>
                <mxCell id="1" parent="0"/>
                <mxCell id="5" value="" style="rounded=0;whiteSpace=wrap;html=1;" parent="1" vertex="1">
                    <mxGeometry x="38" y="-805" width="317" height="760" as="geometry"/>
                </mxCell>
                <mxCell id="6" value="" style="rounded=0;whiteSpace=wrap;html=1;" parent="1" vertex="1">
                    <mxGeometry x="1172" y="-805" width="317" height="760" as="geometry"/>
                </mxCell>
                <mxCell id="7" value="Book a Pharmacy" style="text;strokeColor=none;fillColor=none;html=1;fontSize=24;fontStyle=1;verticalAlign=middle;align=center;" parent="1" vertex="1">
                    <mxGeometry x="42" y="-802" width="310" height="50" as="geometry"/>
                </mxCell>
                <mxCell id="8" value="Results for&amp;nbsp; { town }" style="text;strokeColor=none;fillColor=none;html=1;fontSize=24;fontStyle=1;verticalAlign=middle;align=center;" parent="1" vertex="1">
                    <mxGeometry x="1176" y="-802" width="310" height="50" as="geometry"/>
                </mxCell>
                <mxCell id="9" value="" style="rounded=0;whiteSpace=wrap;html=1;" parent="1" vertex="1">
                    <mxGeometry x="38" y="60" width="317" height="760" as="geometry"/>
                </mxCell>
                <mxCell id="10" value="" style="rounded=0;whiteSpace=wrap;html=1;" parent="1" vertex="1">
                    <mxGeometry x="1172" y="60" width="317" height="760" as="geometry"/>
                </mxCell>
                <mxCell id="11" value="Available Services" style="text;strokeColor=none;fillColor=none;html=1;fontSize=24;fontStyle=1;verticalAlign=middle;align=center;" parent="1" vertex="1">
                    <mxGeometry x="42" y="62" width="310" height="50" as="geometry"/>
                </mxCell>
                <mxCell id="12" value="Selected Service" style="text;strokeColor=none;fillColor=none;html=1;fontSize=24;fontStyle=1;verticalAlign=middle;align=center;" parent="1" vertex="1">
                    <mxGeometry x="1176" y="62" width="310" height="50" as="geometry"/>
                </mxCell>
                <mxCell id="13" value="" style="rounded=0;whiteSpace=wrap;html=1;" parent="1" vertex="1">
                    <mxGeometry x="38" y="910" width="317" height="760" as="geometry"/>
                </mxCell>
                <mxCell id="14" value="" style="rounded=0;whiteSpace=wrap;html=1;" parent="1" vertex="1">
                    <mxGeometry x="1172" y="910" width="317" height="760" as="geometry"/>
                </mxCell>
                <mxCell id="15" value="Book Day" style="text;strokeColor=none;fillColor=none;html=1;fontSize=24;fontStyle=1;verticalAlign=middle;align=center;" parent="1" vertex="1">
                    <mxGeometry x="42" y="910" width="310" height="50" as="geometry"/>
                </mxCell>
                <mxCell id="16" value="ClientDetail" style="text;strokeColor=none;fillColor=none;html=1;fontSize=24;fontStyle=1;verticalAlign=middle;align=center;" parent="1" vertex="1">
                    <mxGeometry x="1176" y="932" width="310" height="50" as="geometry"/>
                </mxCell>
                <mxCell id="17" value="" style="rounded=0;whiteSpace=wrap;html=1;" parent="1" vertex="1">
                    <mxGeometry x="35" y="1760" width="317" height="760" as="geometry"/>
                </mxCell>
                <mxCell id="18" value="Thank You" style="text;strokeColor=none;fillColor=none;html=1;fontSize=24;fontStyle=1;verticalAlign=middle;align=center;" parent="1" vertex="1">
                    <mxGeometry x="38.5" y="1760" width="310" height="50" as="geometry"/>
                </mxCell>
                <mxCell id="19" value="&lt;div style=&quot;color: rgb(36, 41, 46); background-color: rgb(255, 255, 255); font-family: Consolas, &amp;quot;Courier New&amp;quot;, monospace; font-weight: normal; font-size: 16px; line-height: 22px;&quot;&gt;&lt;div&gt;&lt;span style=&quot;color: #24292e;&quot;&gt;&amp;lt;&lt;/span&gt;&lt;span style=&quot;color: #22863a;&quot;&gt;div&lt;/span&gt;&lt;span style=&quot;color: #24292e;&quot;&gt; &lt;/span&gt;&lt;span style=&quot;color: #6f42c1;&quot;&gt;id&lt;/span&gt;&lt;span style=&quot;color: #24292e;&quot;&gt;=&lt;/span&gt;&lt;span style=&quot;color: #032f62;&quot;&gt;&quot;bookpharmacy&quot;&lt;/span&gt;&lt;span style=&quot;color: #24292e;&quot;&gt;&amp;gt;&lt;/span&gt;&lt;/div&gt;&lt;/div&gt;" style="text;whiteSpace=wrap;html=1;" parent="1" vertex="1">
                    <mxGeometry x="35" y="-834" width="240" height="50" as="geometry"/>
                </mxCell>
                <mxCell id="20" value="&lt;div style=&quot;color: rgb(36, 41, 46); background-color: rgb(255, 255, 255); font-family: Consolas, &amp;quot;Courier New&amp;quot;, monospace; font-weight: normal; font-size: 16px; line-height: 22px;&quot;&gt;&lt;div&gt;&lt;span style=&quot;color: #24292e;&quot;&gt;&amp;lt;&lt;/span&gt;&lt;span style=&quot;color: #22863a;&quot;&gt;div&lt;/span&gt;&lt;span style=&quot;color: #24292e;&quot;&gt; &lt;/span&gt;&lt;span style=&quot;color: #6f42c1;&quot;&gt;id&lt;/span&gt;&lt;span style=&quot;color: #24292e;&quot;&gt;=&lt;/span&gt;&lt;span style=&quot;color: #032f62;&quot;&gt;&quot;townresults&quot;&lt;/span&gt;&lt;span style=&quot;color: #24292e;&quot;&gt;&amp;gt;&lt;/span&gt;&lt;/div&gt;&lt;/div&gt;" style="text;whiteSpace=wrap;html=1;" parent="1" vertex="1">
                    <mxGeometry x="1172" y="-834" width="230" height="50" as="geometry"/>
                </mxCell>
                <mxCell id="21" value="&lt;div style=&quot;color: rgb(36, 41, 46); background-color: rgb(255, 255, 255); font-family: Consolas, &amp;quot;Courier New&amp;quot;, monospace; font-weight: normal; font-size: 16px; line-height: 22px;&quot;&gt;&lt;div&gt;&lt;span style=&quot;color: #24292e;&quot;&gt;&amp;lt;&lt;/span&gt;&lt;span style=&quot;color: #22863a;&quot;&gt;div&lt;/span&gt;&lt;span style=&quot;color: #24292e;&quot;&gt; &lt;/span&gt;&lt;span style=&quot;color: #6f42c1;&quot;&gt;id&lt;/span&gt;&lt;span style=&quot;color: #24292e;&quot;&gt;=&lt;/span&gt;&lt;span style=&quot;color: #032f62;&quot;&gt;&quot;services&quot;&lt;/span&gt;&lt;span style=&quot;color: #24292e;&quot;&gt;&amp;gt;&lt;/span&gt;&lt;/div&gt;&lt;/div&gt;" style="text;whiteSpace=wrap;html=1;" parent="1" vertex="1">
                    <mxGeometry x="38.5" y="27" width="200" height="50" as="geometry"/>
                </mxCell>
                <mxCell id="22" value="&lt;div style=&quot;color: rgb(36, 41, 46); background-color: rgb(255, 255, 255); font-family: Consolas, &amp;quot;Courier New&amp;quot;, monospace; font-weight: normal; font-size: 16px; line-height: 22px;&quot;&gt;&lt;div&gt;&lt;span style=&quot;color: #24292e;&quot;&gt;&amp;lt;&lt;/span&gt;&lt;span style=&quot;color: #22863a;&quot;&gt;div&lt;/span&gt;&lt;span style=&quot;color: #24292e;&quot;&gt; &lt;/span&gt;&lt;span style=&quot;color: #6f42c1;&quot;&gt;id&lt;/span&gt;&lt;span style=&quot;color: #24292e;&quot;&gt;=&lt;/span&gt;&lt;span style=&quot;color: #032f62;&quot;&gt;&quot;selectservice&quot;&lt;/span&gt;&lt;span style=&quot;color: #24292e;&quot;&gt;&amp;gt;&lt;/span&gt;&lt;/div&gt;&lt;/div&gt;" style="text;whiteSpace=wrap;html=1;" parent="1" vertex="1">
                    <mxGeometry x="1172" y="27" width="240" height="50" as="geometry"/>
                </mxCell>
                <mxCell id="23" value="&lt;div style=&quot;color: rgb(36, 41, 46); background-color: rgb(255, 255, 255); font-family: Consolas, &amp;quot;Courier New&amp;quot;, monospace; font-weight: normal; font-size: 16px; line-height: 22px;&quot;&gt;&lt;div&gt;&lt;span style=&quot;color: #24292e;&quot;&gt;&amp;lt;&lt;/span&gt;&lt;span style=&quot;color: #22863a;&quot;&gt;div&lt;/span&gt;&lt;span style=&quot;color: #24292e;&quot;&gt; &lt;/span&gt;&lt;span style=&quot;color: #6f42c1;&quot;&gt;id&lt;/span&gt;&lt;span style=&quot;color: #24292e;&quot;&gt;=&lt;/span&gt;&lt;span style=&quot;color: #032f62;&quot;&gt;&quot;booktime&quot;&lt;/span&gt;&lt;span style=&quot;color: #24292e;&quot;&gt;&amp;gt;&lt;/span&gt;&lt;/div&gt;&lt;/div&gt;" style="text;whiteSpace=wrap;html=1;" parent="1" vertex="1">
                    <mxGeometry x="38" y="878" width="200" height="50" as="geometry"/>
                </mxCell>
                <mxCell id="24" value="&lt;div style=&quot;color: rgb(36, 41, 46); background-color: rgb(255, 255, 255); font-family: Consolas, &amp;quot;Courier New&amp;quot;, monospace; font-weight: normal; font-size: 16px; line-height: 22px;&quot;&gt;&lt;div&gt;&lt;span style=&quot;color: #24292e;&quot;&gt;&amp;lt;&lt;/span&gt;&lt;span style=&quot;color: #22863a;&quot;&gt;div&lt;/span&gt;&lt;span style=&quot;color: #24292e;&quot;&gt; &lt;/span&gt;&lt;span style=&quot;color: #6f42c1;&quot;&gt;id&lt;/span&gt;&lt;span style=&quot;color: #24292e;&quot;&gt;=&lt;/span&gt;&lt;span style=&quot;color: #032f62;&quot;&gt;&quot;clientdetail&quot;&lt;/span&gt;&lt;span style=&quot;color: #24292e;&quot;&gt;&amp;gt;&lt;/span&gt;&lt;/div&gt;&lt;/div&gt;" style="text;whiteSpace=wrap;html=1;" parent="1" vertex="1">
                    <mxGeometry x="1172" y="878" width="240" height="50" as="geometry"/>
                </mxCell>
                <mxCell id="25" value="&lt;div style=&quot;color: rgb(36, 41, 46); background-color: rgb(255, 255, 255); font-family: Consolas, &amp;quot;Courier New&amp;quot;, monospace; font-weight: normal; font-size: 16px; line-height: 22px;&quot;&gt;&lt;div&gt;&lt;span style=&quot;color: #24292e;&quot;&gt;&amp;lt;&lt;/span&gt;&lt;span style=&quot;color: #22863a;&quot;&gt;div&lt;/span&gt;&lt;span style=&quot;color: #24292e;&quot;&gt; &lt;/span&gt;&lt;span style=&quot;color: #6f42c1;&quot;&gt;id&lt;/span&gt;&lt;span style=&quot;color: #24292e;&quot;&gt;=&lt;/span&gt;&lt;span style=&quot;color: #032f62;&quot;&gt;&quot;confirmation&quot;&lt;/span&gt;&lt;span style=&quot;color: #24292e;&quot;&gt;&amp;gt;&lt;/span&gt;&lt;/div&gt;&lt;/div&gt;" style="text;whiteSpace=wrap;html=1;" parent="1" vertex="1">
                    <mxGeometry x="35" y="1730" width="240" height="50" as="geometry"/>
                </mxCell>
                <mxCell id="26" value="&lt;div style=&quot;color: rgb(36, 41, 46); background-color: rgb(255, 255, 255); font-family: Consolas, &amp;quot;Courier New&amp;quot;, monospace; font-weight: normal; font-size: 16px; line-height: 22px;&quot;&gt;&lt;div&gt;&lt;span style=&quot;color: #24292e;&quot;&gt;&amp;nbsp; &lt;/span&gt;&lt;span style=&quot;color: #d73a49;&quot;&gt;let&lt;/span&gt;&lt;span style=&quot;color: #24292e;&quot;&gt; &lt;/span&gt;&lt;span style=&quot;color: #24292e;&quot;&gt;applicationState&lt;/span&gt;&lt;span style=&quot;color: #24292e;&quot;&gt; &lt;/span&gt;&lt;span style=&quot;color: #d73a49;&quot;&gt;=&lt;/span&gt;&lt;span style=&quot;color: #24292e;&quot;&gt; {&lt;/span&gt;&lt;/div&gt;&lt;div&gt;&lt;span style=&quot;color: #24292e;&quot;&gt;&amp;nbsp; &amp;nbsp; &lt;/span&gt;&lt;span style=&quot;color: #24292e;&quot;&gt;Client&lt;/span&gt;&lt;span style=&quot;color: #24292e;&quot;&gt;: { &lt;/span&gt;&lt;span style=&quot;color: #24292e;&quot;&gt;requestarea&lt;/span&gt;&lt;span style=&quot;color: #24292e;&quot;&gt;: &lt;/span&gt;&lt;span style=&quot;color: #032f62;&quot;&gt;&quot;&quot;&lt;/span&gt;&lt;span style=&quot;color: #24292e;&quot;&gt; , &lt;/span&gt;&lt;span style=&quot;color: #24292e;&quot;&gt;name&lt;/span&gt;&lt;span style=&quot;color: #24292e;&quot;&gt;: &lt;/span&gt;&lt;span style=&quot;color: #032f62;&quot;&gt;&quot;&quot;&lt;/span&gt;&lt;span style=&quot;color: #24292e;&quot;&gt;, &lt;/span&gt;&lt;span style=&quot;color: #24292e;&quot;&gt;surname&lt;/span&gt;&lt;span style=&quot;color: #24292e;&quot;&gt;: &lt;/span&gt;&lt;span style=&quot;color: #032f62;&quot;&gt;&quot;&quot;&lt;/span&gt;&lt;span style=&quot;color: #24292e;&quot;&gt;, &lt;/span&gt;&lt;span style=&quot;color: #24292e;&quot;&gt;email&lt;/span&gt;&lt;span style=&quot;color: #24292e;&quot;&gt;: &lt;/span&gt;&lt;span style=&quot;color: #032f62;&quot;&gt;&quot;&quot;&lt;/span&gt;&lt;span style=&quot;color: #24292e;&quot;&gt;, &lt;/span&gt;&lt;span style=&quot;color: #24292e;&quot;&gt;postalcode&lt;/span&gt;&lt;span style=&quot;color: #24292e;&quot;&gt;: &lt;/span&gt;&lt;span style=&quot;color: #032f62;&quot;&gt;&quot;&quot;&lt;/span&gt;&lt;span style=&quot;color: #24292e;&quot;&gt; },&lt;/span&gt;&lt;/div&gt;&lt;div&gt;&lt;span style=&quot;color: #24292e;&quot;&gt;&amp;nbsp; &amp;nbsp; &lt;/span&gt;&lt;span style=&quot;color: #24292e;&quot;&gt;Pharmacy&lt;/span&gt;&lt;span style=&quot;color: #24292e;&quot;&gt;: {&lt;/span&gt;&lt;/div&gt;&lt;div&gt;&lt;span style=&quot;color: #24292e;&quot;&gt;&amp;nbsp; &amp;nbsp; &amp;nbsp; &lt;/span&gt;&lt;span style=&quot;color: #24292e;&quot;&gt;pname&lt;/span&gt;&lt;span style=&quot;color: #24292e;&quot;&gt;: &lt;/span&gt;&lt;span style=&quot;color: #032f62;&quot;&gt;&quot;&quot;&lt;/span&gt;&lt;span style=&quot;color: #24292e;&quot;&gt;,&lt;/span&gt;&lt;/div&gt;&lt;div&gt;&lt;span style=&quot;color: #24292e;&quot;&gt;&amp;nbsp; &amp;nbsp; &amp;nbsp; &lt;/span&gt;&lt;span style=&quot;color: #24292e;&quot;&gt;paddress&lt;/span&gt;&lt;span style=&quot;color: #24292e;&quot;&gt;: &lt;/span&gt;&lt;span style=&quot;color: #032f62;&quot;&gt;&quot;&quot;&lt;/span&gt;&lt;span style=&quot;color: #24292e;&quot;&gt;,&lt;/span&gt;&lt;/div&gt;&lt;div&gt;&lt;span style=&quot;color: #24292e;&quot;&gt;&amp;nbsp; &amp;nbsp; &amp;nbsp; &lt;/span&gt;&lt;span style=&quot;color: #24292e;&quot;&gt;ptown&lt;/span&gt;&lt;span style=&quot;color: #24292e;&quot;&gt;: &lt;/span&gt;&lt;span style=&quot;color: #032f62;&quot;&gt;&quot;&quot;&lt;/span&gt;&lt;span style=&quot;color: #24292e;&quot;&gt;,&lt;/span&gt;&lt;/div&gt;&lt;div&gt;&lt;span style=&quot;color: #24292e;&quot;&gt;&amp;nbsp; &amp;nbsp; &amp;nbsp; &lt;/span&gt;&lt;span style=&quot;color: #24292e;&quot;&gt;pcounty&lt;/span&gt;&lt;span style=&quot;color: #24292e;&quot;&gt;: &lt;/span&gt;&lt;span style=&quot;color: #032f62;&quot;&gt;&quot;&quot;&lt;/span&gt;&lt;span style=&quot;color: #24292e;&quot;&gt;,&lt;/span&gt;&lt;/div&gt;&lt;div&gt;&lt;span style=&quot;color: #24292e;&quot;&gt;&amp;nbsp; &amp;nbsp; &amp;nbsp; &lt;/span&gt;&lt;span style=&quot;color: #24292e;&quot;&gt;ppostalcode&lt;/span&gt;&lt;span style=&quot;color: #24292e;&quot;&gt;: &lt;/span&gt;&lt;span style=&quot;color: #032f62;&quot;&gt;&quot;&quot;&lt;/span&gt;&lt;span style=&quot;color: #24292e;&quot;&gt;,&lt;/span&gt;&lt;/div&gt;&lt;div&gt;&lt;span style=&quot;color: #24292e;&quot;&gt;&amp;nbsp; &amp;nbsp; &amp;nbsp; &lt;/span&gt;&lt;span style=&quot;color: #24292e;&quot;&gt;pphone&lt;/span&gt;&lt;span style=&quot;color: #24292e;&quot;&gt;: &lt;/span&gt;&lt;span style=&quot;color: #032f62;&quot;&gt;&quot;&quot;&lt;/span&gt;&lt;span style=&quot;color: #24292e;&quot;&gt;,&lt;/span&gt;&lt;/div&gt;&lt;div&gt;&lt;span style=&quot;color: #24292e;&quot;&gt;&amp;nbsp; &amp;nbsp; &amp;nbsp; &lt;/span&gt;&lt;span style=&quot;color: #24292e;&quot;&gt;isbookable&lt;/span&gt;&lt;span style=&quot;color: #24292e;&quot;&gt;: &lt;/span&gt;&lt;span style=&quot;color: #005cc5;&quot;&gt;true&lt;/span&gt;&lt;span style=&quot;color: #24292e;&quot;&gt;,&lt;/span&gt;&lt;/div&gt;&lt;div&gt;&lt;span style=&quot;color: #24292e;&quot;&gt;&amp;nbsp; &amp;nbsp; },&lt;/span&gt;&lt;/div&gt;&lt;div&gt;&lt;span style=&quot;color: #24292e;&quot;&gt;&amp;nbsp; &amp;nbsp; &lt;/span&gt;&lt;span style=&quot;color: #24292e;&quot;&gt;Service&lt;/span&gt;&lt;span style=&quot;color: #24292e;&quot;&gt;: { &lt;/span&gt;&lt;span style=&quot;color: #24292e;&quot;&gt;stype&lt;/span&gt;&lt;span style=&quot;color: #24292e;&quot;&gt;: &lt;/span&gt;&lt;span style=&quot;color: #032f62;&quot;&gt;&quot;&quot;&lt;/span&gt;&lt;span style=&quot;color: #24292e;&quot;&gt;, &lt;/span&gt;&lt;span style=&quot;color: #24292e;&quot;&gt;sname&lt;/span&gt;&lt;span style=&quot;color: #24292e;&quot;&gt;: &lt;/span&gt;&lt;span style=&quot;color: #032f62;&quot;&gt;&quot;&quot;&lt;/span&gt;&lt;span style=&quot;color: #24292e;&quot;&gt; },&lt;/span&gt;&lt;/div&gt;&lt;div&gt;&lt;span style=&quot;color: #24292e;&quot;&gt;&amp;nbsp; &amp;nbsp; &lt;/span&gt;&lt;span style=&quot;color: #24292e;&quot;&gt;Booking&lt;/span&gt;&lt;span style=&quot;color: #24292e;&quot;&gt;: { &lt;/span&gt;&lt;span style=&quot;color: #24292e;&quot;&gt;area&lt;/span&gt;&lt;span style=&quot;color: #24292e;&quot;&gt;: &lt;/span&gt;&lt;span style=&quot;color: #032f62;&quot;&gt;&quot;&quot;&lt;/span&gt;&lt;span style=&quot;color: #24292e;&quot;&gt;, &lt;/span&gt;&lt;span style=&quot;color: #24292e;&quot;&gt;day&lt;/span&gt;&lt;span style=&quot;color: #24292e;&quot;&gt;: &lt;/span&gt;&lt;span style=&quot;color: #032f62;&quot;&gt;&quot;&quot;&lt;/span&gt;&lt;span style=&quot;color: #24292e;&quot;&gt;, &lt;/span&gt;&lt;span style=&quot;color: #24292e;&quot;&gt;hour&lt;/span&gt;&lt;span style=&quot;color: #24292e;&quot;&gt;: &lt;/span&gt;&lt;span style=&quot;color: #032f62;&quot;&gt;&quot;&quot;&lt;/span&gt;&lt;span style=&quot;color: #24292e;&quot;&gt; },&lt;/span&gt;&lt;/div&gt;&lt;div&gt;&lt;span style=&quot;color: #24292e;&quot;&gt;&amp;nbsp; &amp;nbsp; &lt;/span&gt;&lt;span style=&quot;color: #24292e;&quot;&gt;Confirmation&lt;/span&gt;&lt;span style=&quot;color: #24292e;&quot;&gt;: { &lt;/span&gt;&lt;span style=&quot;color: #24292e;&quot;&gt;isconfirmed&lt;/span&gt;&lt;span style=&quot;color: #24292e;&quot;&gt;: &lt;/span&gt;&lt;span style=&quot;color: #005cc5;&quot;&gt;false&lt;/span&gt;&lt;span style=&quot;color: #24292e;&quot;&gt; },&lt;/span&gt;&lt;/div&gt;&lt;div&gt;&lt;span style=&quot;color: #24292e;&quot;&gt;&amp;nbsp; };&lt;/span&gt;&lt;/div&gt;&lt;/div&gt;" style="text;whiteSpace=wrap;html=1;" parent="1" vertex="1">
                    <mxGeometry x="1390" y="1980" width="560" height="380" as="geometry"/>
                </mxCell>
                <mxCell id="27" value="&lt;font style=&quot;font-size: 200px;&quot;&gt;+&lt;/font&gt;" style="text;strokeColor=none;fillColor=none;html=1;fontSize=24;fontStyle=1;verticalAlign=middle;align=center;" parent="1" vertex="1">
                    <mxGeometry x="40" y="-750" width="310" height="180" as="geometry"/>
                </mxCell>
                <mxCell id="30" value="Start your search" style="text;html=1;strokeColor=none;fillColor=none;align=center;verticalAlign=middle;whiteSpace=wrap;rounded=0;fontSize=24;" parent="1" vertex="1">
                    <mxGeometry x="50" y="-570" width="290" height="30" as="geometry"/>
                </mxCell>
                <mxCell id="31" value="town" style="rounded=1;whiteSpace=wrap;html=1;fontSize=24;" parent="1" vertex="1">
                    <mxGeometry x="61.5" y="-510" width="270" height="60" as="geometry"/>
                </mxCell>
                <mxCell id="32" value="Search" style="rounded=1;whiteSpace=wrap;html=1;fontSize=24;fillColor=#15EDE6;strokeColor=#FFFFCC;" parent="1" vertex="1">
                    <mxGeometry x="62" y="-425" width="270" height="60" as="geometry"/>
                </mxCell>
                <mxCell id="33" value="Select a Service" style="rounded=1;whiteSpace=wrap;html=1;fontSize=24;fillColor=#15EDE6;strokeColor=#FFFFCC;" parent="1" vertex="1">
                    <mxGeometry x="1195.5" y="-730" width="270" height="60" as="geometry"/>
                </mxCell>
                <mxCell id="34" value="&lt;u&gt;Local Pharmacies&lt;/u&gt;" style="text;html=1;strokeColor=none;fillColor=none;align=center;verticalAlign=middle;whiteSpace=wrap;rounded=0;fontSize=24;" parent="1" vertex="1">
                    <mxGeometry x="1185.5" y="-607" width="290" height="30" as="geometry"/>
                </mxCell>
                <mxCell id="36" value="&lt;p style=&quot;font-family: Arial, sans-serif; font-size: medium; text-align: start; background-color: rgb(255, 255, 255);&quot;&gt;&lt;strong&gt;Name:&lt;/strong&gt;&amp;nbsp;TESCO INSTORE PHARMACY TESCO EXTRA&lt;/p&gt;&lt;p style=&quot;font-family: Arial, sans-serif; font-size: medium; text-align: start; background-color: rgb(255, 255, 255);&quot;&gt;&lt;strong&gt;Address:&lt;/strong&gt;&amp;nbsp;92A STATION ROAD, ADDLESTONE, SURREY, KT15 2AD&lt;/p&gt;&lt;p style=&quot;font-family: Arial, sans-serif; font-size: medium; text-align: start; background-color: rgb(255, 255, 255);&quot;&gt;&lt;strong&gt;Bookable:&lt;/strong&gt;&amp;nbsp;Yes&lt;/p&gt;" style="text;html=1;strokeColor=none;fillColor=none;align=center;verticalAlign=middle;whiteSpace=wrap;rounded=0;fontSize=24;" parent="1" vertex="1">
                    <mxGeometry x="1185.5" y="-580" width="290" height="160" as="geometry"/>
                </mxCell>
                <mxCell id="37" value="&lt;p style=&quot;font-family: Arial, sans-serif; font-size: medium; text-align: start; background-color: rgb(255, 255, 255);&quot;&gt;&lt;strong&gt;Name:&lt;/strong&gt;&amp;nbsp;TESCO INSTORE PHARMACY TESCO EXTRA&lt;/p&gt;&lt;p style=&quot;font-family: Arial, sans-serif; font-size: medium; text-align: start; background-color: rgb(255, 255, 255);&quot;&gt;&lt;strong&gt;Address:&lt;/strong&gt;&amp;nbsp;92A STATION ROAD, ADDLESTONE, SURREY, KT15 2AD&lt;/p&gt;&lt;p style=&quot;font-family: Arial, sans-serif; font-size: medium; text-align: start; background-color: rgb(255, 255, 255);&quot;&gt;&lt;strong&gt;Bookable:&lt;/strong&gt;&amp;nbsp;Yes&lt;/p&gt;" style="text;html=1;strokeColor=none;fillColor=none;align=center;verticalAlign=middle;whiteSpace=wrap;rounded=0;fontSize=24;" parent="1" vertex="1">
                    <mxGeometry x="1186" y="-410" width="290" height="160" as="geometry"/>
                </mxCell>
                <mxCell id="38" value="NHS Pharmacy First" style="rounded=1;whiteSpace=wrap;html=1;fontSize=24;fillColor=#15EDE6;strokeColor=#FFFFCC;" parent="1" vertex="1">
                    <mxGeometry x="58.5" y="130" width="270" height="60" as="geometry"/>
                </mxCell>
                <mxCell id="39" value="NHS Free" style="rounded=1;whiteSpace=wrap;html=1;fontSize=24;fillColor=#15EDE6;strokeColor=#FFFFCC;" parent="1" vertex="1">
                    <mxGeometry x="58.5" y="210" width="270" height="60" as="geometry"/>
                </mxCell>
                <mxCell id="40" value="Private Services" style="rounded=1;whiteSpace=wrap;html=1;fontSize=24;fillColor=#15EDE6;strokeColor=#FFFFCC;" parent="1" vertex="1">
                    <mxGeometry x="60" y="290" width="270" height="60" as="geometry"/>
                </mxCell>
                <mxCell id="41" value="" style="verticalLabelPosition=bottom;shadow=0;dashed=0;align=center;html=1;verticalAlign=top;strokeWidth=1;shape=mxgraph.mockup.navigation.pageControl;fillColor=#999999;strokeColor=#ddeeff;fontSize=10;" parent="1" vertex="1">
                    <mxGeometry x="130" y="360" width="100" height="50" as="geometry"/>
                </mxCell>
                <mxCell id="43" value="- Blood Clucose Monitoring&lt;br&gt;- Blood Pressure Check&lt;br&gt;- Cholesterol Check" style="text;html=1;strokeColor=none;fillColor=none;align=left;verticalAlign=middle;whiteSpace=wrap;rounded=0;fontSize=24;" parent="1" vertex="1">
                    <mxGeometry x="52" y="425" width="298" height="125" as="geometry"/>
                </mxCell>
                <mxCell id="45" value="Blood Pressure Check" style="text;html=1;strokeColor=none;fillColor=none;align=center;verticalAlign=middle;whiteSpace=wrap;rounded=0;fontSize=24;" parent="1" vertex="1">
                    <mxGeometry x="1176" y="130" width="290" height="30" as="geometry"/>
                </mxCell>
                <mxCell id="46" value="&lt;p style=&quot;font-family: Arial, sans-serif; font-size: medium; text-align: start; background-color: rgb(255, 255, 255);&quot;&gt;&lt;strong&gt;Name:&lt;/strong&gt;&amp;nbsp;TESCO INSTORE PHARMACY TESCO EXTRA&lt;/p&gt;&lt;p style=&quot;font-family: Arial, sans-serif; font-size: medium; text-align: start; background-color: rgb(255, 255, 255);&quot;&gt;&lt;strong&gt;Address:&lt;/strong&gt;&amp;nbsp;92A STATION ROAD, ADDLESTONE, SURREY, KT15 2AD&lt;/p&gt;&lt;p style=&quot;font-family: Arial, sans-serif; font-size: medium; text-align: start; background-color: rgb(255, 255, 255);&quot;&gt;&lt;strong&gt;Bookable:&lt;/strong&gt;&amp;nbsp;Yes&lt;/p&gt;" style="text;html=1;strokeColor=none;fillColor=none;align=center;verticalAlign=middle;whiteSpace=wrap;rounded=0;fontSize=24;" parent="1" vertex="1">
                    <mxGeometry x="1186" y="240" width="290" height="160" as="geometry"/>
                </mxCell>
                <mxCell id="47" value="&lt;u&gt;Local Pharmacies&lt;/u&gt;" style="text;html=1;strokeColor=none;fillColor=none;align=center;verticalAlign=middle;whiteSpace=wrap;rounded=0;fontSize=24;" parent="1" vertex="1">
                    <mxGeometry x="1175.5" y="190" width="290" height="30" as="geometry"/>
                </mxCell>
                <mxCell id="48" value="&lt;font style=&quot;font-size: 14px;&quot;&gt;Mon 1 April&lt;/font&gt;" style="rounded=1;whiteSpace=wrap;html=1;fontSize=24;fillColor=#15EDE6;strokeColor=#FFFFCC;" parent="1" vertex="1">
                    <mxGeometry x="90" y="982" width="210" height="38" as="geometry"/>
                </mxCell>
                <mxCell id="51" value="&lt;font style=&quot;font-size: 14px;&quot;&gt;Tue 2 April&lt;/font&gt;" style="rounded=1;whiteSpace=wrap;html=1;fontSize=24;fillColor=#15EDE6;strokeColor=#FFFFCC;" parent="1" vertex="1">
                    <mxGeometry x="91" y="1023" width="210" height="38" as="geometry"/>
                </mxCell>
                <mxCell id="52" value="&lt;font style=&quot;font-size: 14px;&quot;&gt;Wed 3 April&lt;/font&gt;" style="rounded=1;whiteSpace=wrap;html=1;fontSize=24;fillColor=#15EDE6;strokeColor=#FFFFCC;" parent="1" vertex="1">
                    <mxGeometry x="91" y="1064" width="210" height="38" as="geometry"/>
                </mxCell>
                <mxCell id="53" value="" style="rounded=1;whiteSpace=wrap;html=1;fontSize=24;fillColor=#15EDE6;strokeColor=#FFFFCC;" parent="1" vertex="1">
                    <mxGeometry x="92" y="1106" width="210" height="14" as="geometry"/>
                </mxCell>
                <mxCell id="54" value="" style="rounded=1;whiteSpace=wrap;html=1;fontSize=24;fillColor=#15EDE6;strokeColor=#FFFFCC;" parent="1" vertex="1">
                    <mxGeometry x="92" y="1122" width="210" height="14" as="geometry"/>
                </mxCell>
                <mxCell id="55" value="" style="rounded=1;whiteSpace=wrap;html=1;fontSize=24;fillColor=#15EDE6;strokeColor=#FFFFCC;" parent="1" vertex="1">
                    <mxGeometry x="92" y="1139" width="210" height="14" as="geometry"/>
                </mxCell>
                <mxCell id="56" value="" style="rounded=1;whiteSpace=wrap;html=1;fontSize=24;fillColor=#15EDE6;strokeColor=#FFFFCC;" parent="1" vertex="1">
                    <mxGeometry x="92" y="1155" width="210" height="14" as="geometry"/>
                </mxCell>
                <mxCell id="57" value="Book Hour" style="text;strokeColor=none;fillColor=none;html=1;fontSize=24;fontStyle=1;verticalAlign=middle;align=center;" parent="1" vertex="1">
                    <mxGeometry x="43" y="1275" width="310" height="50" as="geometry"/>
                </mxCell>
                <mxCell id="58" value="&lt;font style=&quot;font-size: 14px;&quot;&gt;08:00&lt;/font&gt;" style="rounded=1;whiteSpace=wrap;html=1;fontSize=24;fillColor=#15EDE6;strokeColor=#FFFFCC;" parent="1" vertex="1">
                    <mxGeometry x="92" y="1330" width="81.5" height="38" as="geometry"/>
                </mxCell>
                <mxCell id="59" value="&lt;font style=&quot;font-size: 14px;&quot;&gt;08:30&lt;/font&gt;" style="rounded=1;whiteSpace=wrap;html=1;fontSize=24;fillColor=#15EDE6;strokeColor=#FFFFCC;" parent="1" vertex="1">
                    <mxGeometry x="218.5" y="1330" width="81.5" height="38" as="geometry"/>
                </mxCell>
                <mxCell id="61" value="&lt;font style=&quot;font-size: 14px;&quot;&gt;09:00&lt;/font&gt;" style="rounded=1;whiteSpace=wrap;html=1;fontSize=24;fillColor=#15EDE6;strokeColor=#FFFFCC;" parent="1" vertex="1">
                    <mxGeometry x="94" y="1380" width="81.5" height="38" as="geometry"/>
                </mxCell>
                <mxCell id="62" value="&lt;font style=&quot;font-size: 14px;&quot;&gt;09:30&lt;/font&gt;" style="rounded=1;whiteSpace=wrap;html=1;fontSize=24;fillColor=#15EDE6;strokeColor=#FFFFCC;" parent="1" vertex="1">
                    <mxGeometry x="220.5" y="1380" width="81.5" height="38" as="geometry"/>
                </mxCell>
                <mxCell id="63" value="&lt;font style=&quot;font-size: 14px;&quot;&gt;10:00&lt;/font&gt;" style="rounded=1;whiteSpace=wrap;html=1;fontSize=24;fillColor=#15EDE6;strokeColor=#FFFFCC;" parent="1" vertex="1">
                    <mxGeometry x="93" y="1430" width="81.5" height="38" as="geometry"/>
                </mxCell>
                <mxCell id="64" value="&lt;font style=&quot;font-size: 14px;&quot;&gt;10:30&lt;/font&gt;" style="rounded=1;whiteSpace=wrap;html=1;fontSize=24;fillColor=#15EDE6;strokeColor=#FFFFCC;" parent="1" vertex="1">
                    <mxGeometry x="219.5" y="1430" width="81.5" height="38" as="geometry"/>
                </mxCell>
                <mxCell id="65" value="&lt;font style=&quot;font-size: 14px;&quot;&gt;11:00&lt;/font&gt;" style="rounded=1;whiteSpace=wrap;html=1;fontSize=24;fillColor=#15EDE6;strokeColor=#FFFFCC;" parent="1" vertex="1">
                    <mxGeometry x="97" y="1480" width="81.5" height="38" as="geometry"/>
                </mxCell>
                <mxCell id="66" value="&lt;font style=&quot;font-size: 14px;&quot;&gt;11:03&lt;/font&gt;" style="rounded=1;whiteSpace=wrap;html=1;fontSize=24;fillColor=#15EDE6;strokeColor=#FFFFCC;" parent="1" vertex="1">
                    <mxGeometry x="223.5" y="1480" width="81.5" height="38" as="geometry"/>
                </mxCell>
                <mxCell id="67" value="&lt;font style=&quot;font-size: 14px;&quot;&gt;16:00&lt;/font&gt;" style="rounded=1;whiteSpace=wrap;html=1;fontSize=24;fillColor=#15EDE6;strokeColor=#FFFFCC;" parent="1" vertex="1">
                    <mxGeometry x="97" y="1570" width="81.5" height="38" as="geometry"/>
                </mxCell>
                <mxCell id="68" value="&lt;font style=&quot;font-size: 14px;&quot;&gt;16:30&lt;/font&gt;" style="rounded=1;whiteSpace=wrap;html=1;fontSize=24;fillColor=#15EDE6;strokeColor=#FFFFCC;" parent="1" vertex="1">
                    <mxGeometry x="223.5" y="1570" width="81.5" height="38" as="geometry"/>
                </mxCell>
                <mxCell id="69" value="name" style="rounded=1;whiteSpace=wrap;html=1;fontSize=24;" parent="1" vertex="1">
                    <mxGeometry x="1195.5" y="1004" width="270" height="60" as="geometry"/>
                </mxCell>
                <mxCell id="70" value="surname" style="rounded=1;whiteSpace=wrap;html=1;fontSize=24;" parent="1" vertex="1">
                    <mxGeometry x="1195.5" y="1083" width="270" height="60" as="geometry"/>
                </mxCell>
                <mxCell id="72" value="email" style="rounded=1;whiteSpace=wrap;html=1;fontSize=24;" parent="1" vertex="1">
                    <mxGeometry x="1195.5" y="1169" width="270" height="60" as="geometry"/>
                </mxCell>
                <mxCell id="73" value="phone number" style="rounded=1;whiteSpace=wrap;html=1;fontSize=24;" parent="1" vertex="1">
                    <mxGeometry x="1198.5" y="1245" width="270" height="60" as="geometry"/>
                </mxCell>
                <mxCell id="74" value="Book" style="rounded=1;whiteSpace=wrap;html=1;fontSize=24;fillColor=#15EDE6;strokeColor=#FFFFCC;" parent="1" vertex="1">
                    <mxGeometry x="1196" y="1330" width="270" height="60" as="geometry"/>
                </mxCell>
                <mxCell id="75" value="function fetchPharmacies(town) {&lt;br&gt;&amp;nbsp; fetch(`&lt;b&gt;https://yourdomain.com/api/pharmacies?town=${town}`&lt;/b&gt;)&lt;br&gt;&amp;nbsp; &amp;nbsp; .then(response =&amp;gt; response.json())&lt;br&gt;&amp;nbsp; &amp;nbsp; .then(data =&amp;gt; {&lt;br&gt;&amp;nbsp; &amp;nbsp; &amp;nbsp; displayPharmacies(data);&lt;br&gt;&amp;nbsp; &amp;nbsp; })&lt;br&gt;&amp;nbsp; &amp;nbsp; .catch(error =&amp;gt; console.error('Error fetching pharmacies:', error));&lt;br&gt;}" style="text;whiteSpace=wrap;html=1;fillColor=#FFFFCC;" vertex="1" parent="1">
                    <mxGeometry x="690" y="-820" width="390" height="140" as="geometry"/>
                </mxCell>
                <mxCell id="76" value="&lt;div style=&quot;color: rgb(36, 41, 46); background-color: rgb(255, 255, 255); font-family: Consolas, &amp;quot;Courier New&amp;quot;, monospace; font-size: 16px; line-height: 22px;&quot;&gt;&lt;div style=&quot;font-weight: normal;&quot;&gt;&lt;span style=&quot;color: #005cc5;&quot;&gt;pharmaciesJSON&lt;/span&gt;&lt;span style=&quot;color: #24292e;&quot;&gt; &lt;/span&gt;&lt;span style=&quot;color: #d73a49;&quot;&gt;=&lt;/span&gt;&lt;span style=&quot;color: #24292e;&quot;&gt; [&lt;/span&gt;&lt;/div&gt;&lt;div style=&quot;font-weight: normal;&quot;&gt;&lt;span style=&quot;color: #24292e;&quot;&gt;&amp;nbsp; {&lt;/span&gt;&lt;/div&gt;&lt;div style=&quot;font-weight: normal;&quot;&gt;&lt;span style=&quot;color: #24292e;&quot;&gt;&amp;nbsp; &amp;nbsp; &lt;/span&gt;&lt;span style=&quot;color: #24292e;&quot;&gt;pname&lt;/span&gt;&lt;span style=&quot;color: #24292e;&quot;&gt;: &lt;/span&gt;&lt;span style=&quot;color: #032f62;&quot;&gt;&quot;TESCO INSTORE PHARMACY TESCO EXTRA&quot;&lt;/span&gt;&lt;span style=&quot;color: #24292e;&quot;&gt;,&lt;/span&gt;&lt;/div&gt;&lt;div style=&quot;font-weight: normal;&quot;&gt;&lt;span style=&quot;color: #24292e;&quot;&gt;&amp;nbsp; &amp;nbsp; &lt;/span&gt;&lt;span style=&quot;color: #24292e;&quot;&gt;paddress&lt;/span&gt;&lt;span style=&quot;color: #24292e;&quot;&gt;: &lt;/span&gt;&lt;span style=&quot;color: #032f62;&quot;&gt;&quot;92A STATION ROAD, ADDLESTONE, SURREY, KT15 2AD&quot;&lt;/span&gt;&lt;span style=&quot;color: #24292e;&quot;&gt;,&lt;/span&gt;&lt;/div&gt;&lt;div style=&quot;&quot;&gt;&lt;span style=&quot;font-weight: normal; color: rgb(36, 41, 46);&quot;&gt;&amp;nbsp; &amp;nbsp; &lt;/span&gt;&lt;span style=&quot;font-weight: normal; color: rgb(36, 41, 46);&quot;&gt;ptown&lt;/span&gt;&lt;span style=&quot;font-weight: normal; color: rgb(36, 41, 46);&quot;&gt;: &lt;/span&gt;&lt;span style=&quot;color: rgb(3, 47, 98);&quot;&gt;&quot;&lt;b&gt;ADDLESTONE&lt;/b&gt;&quot;&lt;/span&gt;&lt;span style=&quot;font-weight: normal; color: rgb(36, 41, 46);&quot;&gt;,&lt;/span&gt;&lt;/div&gt;&lt;div style=&quot;font-weight: normal;&quot;&gt;&lt;span style=&quot;color: #24292e;&quot;&gt;&amp;nbsp; &amp;nbsp; &lt;/span&gt;&lt;span style=&quot;color: #24292e;&quot;&gt;pcounty&lt;/span&gt;&lt;span style=&quot;color: #24292e;&quot;&gt;: &lt;/span&gt;&lt;span style=&quot;color: #032f62;&quot;&gt;&quot;SURREY&quot;&lt;/span&gt;&lt;span style=&quot;color: #24292e;&quot;&gt;,&lt;/span&gt;&lt;/div&gt;&lt;div style=&quot;font-weight: normal;&quot;&gt;&lt;span style=&quot;color: #24292e;&quot;&gt;&amp;nbsp; &amp;nbsp; &lt;/span&gt;&lt;span style=&quot;color: #24292e;&quot;&gt;ppostalcode&lt;/span&gt;&lt;span style=&quot;color: #24292e;&quot;&gt;: &lt;/span&gt;&lt;span style=&quot;color: #032f62;&quot;&gt;&quot;KT15 2AS&quot;&lt;/span&gt;&lt;span style=&quot;color: #24292e;&quot;&gt;,&lt;/span&gt;&lt;/div&gt;&lt;div style=&quot;font-weight: normal;&quot;&gt;&lt;span style=&quot;color: #24292e;&quot;&gt;&amp;nbsp; &amp;nbsp; &lt;/span&gt;&lt;span style=&quot;color: #24292e;&quot;&gt;pphone&lt;/span&gt;&lt;span style=&quot;color: #24292e;&quot;&gt;: &lt;/span&gt;&lt;span style=&quot;color: #032f62;&quot;&gt;&quot;03456778999&quot;&lt;/span&gt;&lt;span style=&quot;color: #24292e;&quot;&gt;,&lt;/span&gt;&lt;/div&gt;&lt;div style=&quot;font-weight: normal;&quot;&gt;&lt;span style=&quot;color: #24292e;&quot;&gt;&amp;nbsp; &amp;nbsp; &lt;/span&gt;&lt;span style=&quot;color: #24292e;&quot;&gt;isbookable&lt;/span&gt;&lt;span style=&quot;color: #24292e;&quot;&gt;: &lt;/span&gt;&lt;span style=&quot;color: #005cc5;&quot;&gt;true&lt;/span&gt;&lt;span style=&quot;color: #24292e;&quot;&gt;,&lt;/span&gt;&lt;/div&gt;&lt;div style=&quot;font-weight: normal;&quot;&gt;&lt;span style=&quot;color: #24292e;&quot;&gt;&amp;nbsp; },&lt;/span&gt;&lt;/div&gt;&lt;div style=&quot;font-weight: normal;&quot;&gt;&lt;span style=&quot;color: #24292e;&quot;&gt;&amp;nbsp; {&lt;/span&gt;&lt;/div&gt;&lt;div style=&quot;font-weight: normal;&quot;&gt;&lt;span style=&quot;color: #24292e;&quot;&gt;&amp;nbsp; &amp;nbsp; &lt;/span&gt;&lt;span style=&quot;color: #24292e;&quot;&gt;pname&lt;/span&gt;&lt;span style=&quot;color: #24292e;&quot;&gt;: &lt;/span&gt;&lt;span style=&quot;color: #032f62;&quot;&gt;&quot;CHERTSEY PHARMACY &quot;&lt;/span&gt;&lt;span style=&quot;color: #24292e;&quot;&gt;,&lt;/span&gt;&lt;/div&gt;&lt;div style=&quot;font-weight: normal;&quot;&gt;&lt;span style=&quot;color: #24292e;&quot;&gt;&amp;nbsp; &amp;nbsp; &lt;/span&gt;&lt;span style=&quot;color: #24292e;&quot;&gt;paddress&lt;/span&gt;&lt;span style=&quot;color: #24292e;&quot;&gt;: &lt;/span&gt;&lt;span style=&quot;color: #032f62;&quot;&gt;&quot;1 WEIR ROAD, CHERTSEY, SURREY, KT16 8NF&quot;&lt;/span&gt;&lt;span style=&quot;color: #24292e;&quot;&gt;,&lt;/span&gt;&lt;/div&gt;&lt;div style=&quot;&quot;&gt;&lt;span style=&quot;font-weight: normal; color: rgb(36, 41, 46);&quot;&gt;&amp;nbsp; &amp;nbsp; &lt;/span&gt;&lt;span style=&quot;font-weight: normal; color: rgb(36, 41, 46);&quot;&gt;ptown&lt;/span&gt;&lt;span style=&quot;font-weight: normal; color: rgb(36, 41, 46);&quot;&gt;: &lt;/span&gt;&lt;span style=&quot;color: rgb(3, 47, 98);&quot;&gt;&quot;&lt;b&gt;CHERTSEY&lt;/b&gt;&quot;&lt;/span&gt;&lt;span style=&quot;font-weight: normal; color: rgb(36, 41, 46);&quot;&gt;,&lt;/span&gt;&lt;/div&gt;&lt;div style=&quot;font-weight: normal;&quot;&gt;&lt;span style=&quot;color: #24292e;&quot;&gt;&amp;nbsp; &amp;nbsp; &lt;/span&gt;&lt;span style=&quot;color: #24292e;&quot;&gt;pcounty&lt;/span&gt;&lt;span style=&quot;color: #24292e;&quot;&gt;: &lt;/span&gt;&lt;span style=&quot;color: #032f62;&quot;&gt;&quot;SURREY&quot;&lt;/span&gt;&lt;span style=&quot;color: #24292e;&quot;&gt;,&lt;/span&gt;&lt;/div&gt;&lt;div style=&quot;font-weight: normal;&quot;&gt;&lt;span style=&quot;color: #24292e;&quot;&gt;&amp;nbsp; &amp;nbsp; &lt;/span&gt;&lt;span style=&quot;color: #24292e;&quot;&gt;ppostalcode&lt;/span&gt;&lt;span style=&quot;color: #24292e;&quot;&gt;: &lt;/span&gt;&lt;span style=&quot;color: #032f62;&quot;&gt;&quot;KT16 8NF&quot;&lt;/span&gt;&lt;span style=&quot;color: #24292e;&quot;&gt;,&lt;/span&gt;&lt;/div&gt;&lt;div style=&quot;font-weight: normal;&quot;&gt;&lt;span style=&quot;color: #24292e;&quot;&gt;&amp;nbsp; &amp;nbsp; &lt;/span&gt;&lt;span style=&quot;color: #24292e;&quot;&gt;pphone&lt;/span&gt;&lt;span style=&quot;color: #24292e;&quot;&gt;: &lt;/span&gt;&lt;span style=&quot;color: #032f62;&quot;&gt;&quot;01932976346&quot;&lt;/span&gt;&lt;span style=&quot;color: #24292e;&quot;&gt;,&lt;/span&gt;&lt;/div&gt;&lt;div style=&quot;font-weight: normal;&quot;&gt;&lt;span style=&quot;color: #24292e;&quot;&gt;&amp;nbsp; &amp;nbsp; &lt;/span&gt;&lt;span style=&quot;color: #24292e;&quot;&gt;isbookable&lt;/span&gt;&lt;span style=&quot;color: #24292e;&quot;&gt;: &lt;/span&gt;&lt;span style=&quot;color: #005cc5;&quot;&gt;true&lt;/span&gt;&lt;span style=&quot;color: #24292e;&quot;&gt;,&lt;/span&gt;&lt;/div&gt;&lt;div style=&quot;font-weight: normal;&quot;&gt;&lt;span style=&quot;color: #24292e;&quot;&gt;&amp;nbsp; },&amp;nbsp;&lt;br&gt;]&lt;/span&gt;&lt;/div&gt;&lt;/div&gt;" style="text;whiteSpace=wrap;html=1;" vertex="1" parent="1">
                    <mxGeometry x="520" y="-670" width="560" height="620" as="geometry"/>
                </mxCell>
                <mxCell id="78" value="&lt;div style=&quot;color: rgb(36, 41, 46); background-color: rgb(255, 255, 255); font-family: Consolas, &amp;quot;Courier New&amp;quot;, monospace; font-weight: normal; font-size: 16px; line-height: 22px;&quot;&gt;&lt;div&gt;&lt;span style=&quot;color: #6f42c1;&quot;&gt;id&lt;/span&gt;&lt;span style=&quot;color: #24292e;&quot;&gt;=&lt;/span&gt;&lt;span style=&quot;color: #032f62;&quot;&gt;&quot;btnBookPharmacy&quot;&lt;/span&gt;&lt;/div&gt;&lt;/div&gt;" style="text;whiteSpace=wrap;html=1;" vertex="1" parent="1">
                    <mxGeometry x="65" y="-365" width="210" height="50" as="geometry"/>
                </mxCell>
                <mxCell id="79" value="&lt;div style=&quot;color: rgb(36, 41, 46); background-color: rgb(255, 255, 255); font-family: Consolas, &amp;quot;Courier New&amp;quot;, monospace; font-weight: normal; font-size: 16px; line-height: 22px;&quot;&gt;&lt;div&gt;&lt;span style=&quot;color: #6f42c1;&quot;&gt;id&lt;/span&gt;&lt;span style=&quot;color: #24292e;&quot;&gt;=&lt;/span&gt;&lt;span style=&quot;color: #032f62;&quot;&gt;&quot;btnSelectService&lt;/span&gt;&lt;/div&gt;&lt;/div&gt;" style="text;whiteSpace=wrap;html=1;" vertex="1" parent="1">
                    <mxGeometry x="1198.5" y="-670" width="210" height="50" as="geometry"/>
                </mxCell>
            </root>
        </mxGraphModel>
    </diagram>
</mxfile>